<?xml version="1.0" encoding="UTF-8"?>
<!-- Ce fichier est généré par npm run build:icons -->
<svg xmlns="http://www.w3.org/2000/svg" xmlns:xlink="http://www.w3.org/1999/xlink" width="0" height="0">
<defs>
<symbol viewBox="0 0 15 15" fill="none" id="arrows-left-left"><path d="M8.14645 3.14645C8.34171 2.95118 8.65829 2.95118 8.85355 3.14645L12.8536 7.14645C13.0488 7.34171 13.0488 7.65829 12.8536 7.85355L8.85355 11.8536C8.65829 12.0488 8.34171 12.0488 8.14645 11.8536C7.95118 11.6583 7.95118 11.3417 8.14645 11.1464L11.2929 8H2.5C2.22386 8 2 7.77614 2 7.5C2 7.22386 2.22386 7 2.5 7H11.2929L8.14645 3.85355C7.95118 3.65829 7.95118 3.34171 8.14645 3.14645Z" fill="currentColor" fill-rule="evenodd" clip-rule="evenodd"></path></symbol>
<symbol viewBox="0 0 15 15" fill="none" id="check"><path d="M11.4669 3.72684C11.7558 3.91574 11.8369 4.30308 11.648 4.59198L7.39799 11.092C7.29783 11.2452 7.13556 11.3467 6.95402 11.3699C6.77247 11.3931 6.58989 11.3355 6.45446 11.2124L3.70446 8.71241C3.44905 8.48022 3.43023 8.08494 3.66242 7.82953C3.89461 7.57412 4.28989 7.55529 4.5453 7.78749L6.75292 9.79441L10.6018 3.90792C10.7907 3.61902 11.178 3.53795 11.4669 3.72684Z" fill="currentColor" fill-rule="evenodd" clip-rule="evenodd"></path></symbol>
<symbol viewBox="0 0 15 15" fill="none" id="chevron-back"><path d="M6.85355 3.14645C7.04882 3.34171 7.04882 3.65829 6.85355 3.85355L3.70711 7H12.5C12.7761 7 13 7.22386 13 7.5C13 7.77614 12.7761 8 12.5 8H3.70711L6.85355 11.1464C7.04882 11.3417 7.04882 11.6583 6.85355 11.8536C6.65829 12.0488 6.34171 12.0488 6.14645 11.8536L2.14645 7.85355C1.95118 7.65829 1.95118 7.34171 2.14645 7.14645L6.14645 3.14645C6.34171 2.95118 6.65829 2.95118 6.85355 3.14645Z" fill="currentColor" fill-rule="evenodd" clip-rule="evenodd"></path></symbol>
<symbol viewBox="0 0 15 15" fill="none" id="chevron-down">
  <path 
    fill-rule="evenodd"
    clip-rule="evenodd"
    d="M3.13523 6.15803C3.3241 5.95657 3.64052 5.94637 3.84197 6.13523L7.5 9.56464L11.158 6.13523C11.3595 5.94637 11.6759 5.95657 11.8648 6.15803C12.0536 6.35949 12.0434 6.67591 11.842 6.86477L7.84197 10.6148C7.64964 10.7951 7.35036 10.7951 7.15803 10.6148L3.15803 6.86477C2.95657 6.67591 2.94637 6.35949 3.13523 6.15803Z"
    fill="currentColor"
  ></path>
</symbol>
<symbol viewBox="0 0 24 24" fill="none" stroke="currentColor" stroke-width="2" stroke-linecap="round" stroke-linejoin="round" id="chevron-right">
  <path d="m9 18 6-6-6-6" ></path>
</symbol>
<symbol viewBox="0 0 15 15" fill="none" id="cross-1"><path d="M12.8536 2.85355C13.0488 2.65829 13.0488 2.34171 12.8536 2.14645C12.6583 1.95118 12.3417 1.95118 12.1464 2.14645L7.5 6.79289L2.85355 2.14645C2.65829 1.95118 2.34171 1.95118 2.14645 2.14645C1.95118 2.34171 1.95118 2.65829 2.14645 2.85355L6.79289 7.5L2.14645 12.1464C1.95118 12.3417 1.95118 12.6583 2.14645 12.8536C2.34171 13.0488 2.65829 13.0488 2.85355 12.8536L7.5 8.20711L12.1464 12.8536C12.3417 13.0488 12.6583 13.0488 12.8536 12.8536C13.0488 12.6583 13.0488 12.3417 12.8536 12.1464L8.20711 7.5L12.8536 2.85355Z" fill="currentColor" fill-rule="evenodd" clip-rule="evenodd"></path></symbol>
<symbol viewBox="0 0 15 15" fill="none" id="cross-2">
  <path 
    fill-rule="evenodd"
    clip-rule="evenodd"
    d="M11.7816 4.03157C12.0062 3.80702 12.0062 3.44295 11.7816 3.2184C11.5571 2.99385 11.193 2.99385 10.9685 3.2184L7.50005 6.68682L4.03164 3.2184C3.80708 2.99385 3.44301 2.99385 3.21846 3.2184C2.99391 3.44295 2.99391 3.80702 3.21846 4.03157L6.68688 7.49999L3.21846 10.9684C2.99391 11.193 2.99391 11.557 3.21846 11.7816C3.44301 12.0061 3.80708 12.0061 4.03164 11.7816L7.50005 8.31316L10.9685 11.7816C11.193 12.0061 11.5571 12.0061 11.7816 11.7816C12.0062 11.557 12.0062 11.193 11.7816 10.9684L8.31322 7.49999L11.7816 4.03157Z"
    fill="currentColor"
  ></path>
</symbol>
<symbol viewBox="0 0 24 24" fill="none" stroke="currentColor" stroke-width="2" stroke-linecap="round" stroke-linejoin="round" id="download">
  <path d="M21 15v4a2 2 0 0 1-2 2H5a2 2 0 0 1-2-2v-4" ></path>
  <polyline points="7 10 12 15 17 10" ></polyline>
  <line x1="12" x2="12" y1="15" y2="3" ></line>
</symbol>
<symbol viewBox="0 0 15 15" fill="none" id="exclamation"><path d="M8.4449 0.608765C8.0183 -0.107015 6.9817 -0.107015 6.55509 0.608766L0.161178 11.3368C-0.275824 12.07 0.252503 13 1.10608 13H13.8939C14.7475 13 15.2758 12.07 14.8388 11.3368L8.4449 0.608765ZM7.4141 1.12073C7.45288 1.05566 7.54712 1.05566 7.5859 1.12073L13.9798 11.8488C14.0196 11.9154 13.9715 12 13.8939 12H1.10608C1.02849 12 0.980454 11.9154 1.02018 11.8488L7.4141 1.12073ZM6.8269 4.48611C6.81221 4.10423 7.11783 3.78663 7.5 3.78663C7.88217 3.78663 8.18778 4.10423 8.1731 4.48612L8.01921 8.48701C8.00848 8.766 7.7792 8.98664 7.5 8.98664C7.2208 8.98664 6.99151 8.766 6.98078 8.48701L6.8269 4.48611ZM8.24989 10.476C8.24989 10.8902 7.9141 11.226 7.49989 11.226C7.08567 11.226 6.74989 10.8902 6.74989 10.476C6.74989 10.0618 7.08567 9.72599 7.49989 9.72599C7.9141 9.72599 8.24989 10.0618 8.24989 10.476Z" fill="currentColor" fill-rule="evenodd" clip-rule="evenodd"></path></symbol>
<symbol viewBox="0 0 24 24" fill="none" stroke="currentColor" stroke-width="2" stroke-linecap="round" stroke-linejoin="round" class="lucide lucide-eye-off" id="eye-off"><path d="M9.88 9.88a3 3 0 1 0 4.24 4.24"></path><path d="M10.73 5.08A10.43 10.43 0 0 1 12 5c7 0 10 7 10 7a13.16 13.16 0 0 1-1.67 2.68"></path><path d="M6.61 6.61A13.526 13.526 0 0 0 2 12s3 7 10 7a9.74 9.74 0 0 0 5.39-1.61"></path><line x1="2" x2="22" y1="2" y2="22"></line></symbol>
<symbol viewBox="0 0 24 24" fill="none" stroke="currentColor" stroke-width="2" stroke-linecap="round" stroke-linejoin="round" class="lucide lucide-eye" id="eye"><path d="M2 12s3-7 10-7 10 7 10 7-3 7-10 7-10-7-10-7Z"></path><circle cx="12" cy="12" r="3"></circle></symbol>
<symbol className="w-4 h-4" aria-hidden="true" fill="currentColor" viewBox="0 0 8 19" id="facebook-solid">
    <path fillRule="evenodd" d="M6.135 3H8V0H6.135a4.147 4.147 0 0 0-4.142 4.142V6H0v3h2v9.938h3V9h2.021l.592-3H5V3.591A.6.6 0 0 1 5.592 3h.543Z" clipRule="evenodd"></path>
</symbol>
<symbol viewBox="0 0 24 24" fill="none" stroke="currentColor" stroke-width="2" stroke-linecap="round" stroke-linejoin="round" id="facebook">
  <path d="M18 2h-3a5 5 0 0 0-5 5v3H7v4h3v8h4v-8h3l1-4h-4V7a1 1 0 0 1 1-1h3z" ></path>
</symbol>
<symbol viewBox="0 0 15 15" fill="none" id="hamburger-icon"><path d="M1.5 3C1.22386 3 1 3.22386 1 3.5C1 3.77614 1.22386 4 1.5 4H13.5C13.7761 4 14 3.77614 14 3.5C14 3.22386 13.7761 3 13.5 3H1.5ZM1 7.5C1 7.22386 1.22386 7 1.5 7H13.5C13.7761 7 14 7.22386 14 7.5C14 7.77614 13.7761 8 13.5 8H1.5C1.22386 8 1 7.77614 1 7.5ZM1 11.5C1 11.2239 1.22386 11 1.5 11H13.5C13.7761 11 14 11.2239 14 11.5C14 11.7761 13.7761 12 13.5 12H1.5C1.22386 12 1 11.7761 1 11.5Z" fill="currentColor" fill-rule="evenodd" clip-rule="evenodd"></path></symbol>
<symbol viewBox="0 0 15 15" fill="none" id="instagram"><path fill-rule="evenodd" clip-rule="evenodd" d="M12.9091 12.909C13.2365 12.5817 13.4918 12.1895 13.6588 11.7577C13.8195 11.3443 13.9294 10.8718 13.961 10.1799C13.9926 9.48665 14.0001 9.26529 14.0001 7.50001C14.0001 5.73473 13.9926 5.51328 13.961 4.82008C13.9294 4.12821 13.8195 3.65573 13.6588 3.24228C13.4956 2.80857 13.2398 2.41567 12.9091 2.091C12.5844 1.76028 12.1915 1.50437 11.7578 1.34113C11.3443 1.18056 10.8718 1.0707 10.1799 1.03924C9.48675 1.00748 9.26537 1 7.50006 1C5.73476 1 5.51333 1.00748 4.82014 1.03912C4.12826 1.0707 3.65578 1.18056 3.24233 1.34125C2.80862 1.50447 2.41573 1.76032 2.09105 2.09098C1.76032 2.41563 1.5044 2.80852 1.34113 3.24225C1.18056 3.65573 1.0707 4.12821 1.03924 4.82008C1.00748 5.51328 1 5.73471 1 7.50001C1 9.26532 1.00748 9.48675 1.03924 10.1799C1.07083 10.8718 1.18069 11.3443 1.34138 11.7577C1.5046 12.1915 1.76045 12.5843 2.09111 12.909C2.41578 13.2397 2.80867 13.4955 3.24238 13.6587C3.65586 13.8194 4.12834 13.9293 4.82019 13.9609C5.51348 13.9925 5.73483 14 7.50012 14C9.2654 14 9.48685 13.9925 10.18 13.9609C10.8719 13.9293 11.3444 13.8194 11.7578 13.6587C12.1896 13.4917 12.5818 13.2364 12.9091 12.909ZM1.99949 6.73496C1.99974 6.94524 2.00005 7.19543 2.00005 7.50002C2.00005 7.80461 1.99974 8.0548 1.99949 8.26507C1.99849 9.08596 1.99824 9.29856 2.01963 9.7655C2.04625 10.3509 2.07823 10.7811 2.17588 11.1053C2.26976 11.417 2.37505 11.7342 2.7188 12.1171C3.06255 12.4999 3.39411 12.6733 3.81645 12.8007C4.23879 12.928 4.7696 12.9554 5.23052 12.9764C5.75332 13.0003 5.96052 13.0002 7.05714 12.9999L7.50006 12.9999C7.79304 12.9999 8.03569 13.0001 8.2409 13.0004C9.08195 13.0013 9.29425 13.0015 9.76575 12.9799C10.3512 12.9533 10.7814 12.9213 11.1056 12.8237C11.4173 12.7298 11.7345 12.6245 12.1173 12.2807C12.5001 11.937 12.6735 11.6054 12.8009 11.1831C12.9283 10.7607 12.9557 10.2299 12.9767 9.76902C13.0005 9.24689 13.0004 9.04027 13.0002 7.94749V7.94738L13.0001 7.50039L13.0001 7.05747C13.0004 5.96085 13.0005 5.75365 12.9766 5.23085C12.9556 4.76993 12.9282 4.23912 12.8009 3.81678C12.6735 3.39445 12.5001 3.06288 12.1173 2.71913C11.7345 2.37538 11.4172 2.27009 11.1056 2.17621C10.7813 2.07856 10.3511 2.04658 9.76571 2.01996C9.29421 1.99836 9.08194 1.99859 8.24092 1.99951H8.24092C8.0357 1.99974 7.79305 2.00001 7.50006 2.00001L7.05704 1.99993C5.96051 1.99964 5.75331 1.99958 5.23052 2.02343C4.7696 2.04446 4.23879 2.07183 3.81645 2.19921C3.39411 2.32659 3.06255 2.49999 2.7188 2.88281C2.37505 3.26562 2.26976 3.58286 2.17588 3.89453C2.07823 4.21874 2.04625 4.64894 2.01963 5.23437C1.99824 5.70131 1.99849 5.91401 1.99949 6.73496ZM7.49996 5.25015C6.25741 5.25015 5.25012 6.25744 5.25012 7.49999C5.25012 8.74254 6.25741 9.74983 7.49996 9.74983C8.74251 9.74983 9.7498 8.74254 9.7498 7.49999C9.7498 6.25744 8.74251 5.25015 7.49996 5.25015ZM4.25012 7.49999C4.25012 5.70515 5.70512 4.25015 7.49996 4.25015C9.2948 4.25015 10.7498 5.70515 10.7498 7.49999C10.7498 9.29483 9.2948 10.7498 7.49996 10.7498C5.70512 10.7498 4.25012 9.29483 4.25012 7.49999ZM10.9697 4.7803C11.3839 4.7803 11.7197 4.44452 11.7197 4.0303C11.7197 3.61609 11.3839 3.2803 10.9697 3.2803C10.5555 3.2803 10.2197 3.61609 10.2197 4.0303C10.2197 4.44452 10.5555 4.7803 10.9697 4.7803Z" fill="currentColor"></path></symbol>
<symbol viewBox="0 0 15 15" fill="none" id="left-arrows"><path d="M6.1584 3.13508C6.35985 2.94621 6.67627 2.95642 6.86514 3.15788L10.6151 7.15788C10.7954 7.3502 10.7954 7.64949 10.6151 7.84182L6.86514 11.8418C6.67627 12.0433 6.35985 12.0535 6.1584 11.8646C5.95694 11.6757 5.94673 11.3593 6.1356 11.1579L9.565 7.49985L6.1356 3.84182C5.94673 3.64036 5.95694 3.32394 6.1584 3.13508Z" fill="currentColor" fill-rule="evenodd" clip-rule="evenodd"></path></symbol>
<symbol viewBox="0 0 15 15" fill="none" id="linkedin"><path d="M2 1C1.44772 1 1 1.44772 1 2V13C1 13.5523 1.44772 14 2 14H13C13.5523 14 14 13.5523 14 13V2C14 1.44772 13.5523 1 13 1H2ZM3.05 6H4.95V12H3.05V6ZM5.075 4.005C5.075 4.59871 4.59371 5.08 4 5.08C3.4063 5.08 2.925 4.59871 2.925 4.005C2.925 3.41129 3.4063 2.93 4 2.93C4.59371 2.93 5.075 3.41129 5.075 4.005ZM12 8.35713C12 6.55208 10.8334 5.85033 9.67449 5.85033C9.29502 5.83163 8.91721 5.91119 8.57874 6.08107C8.32172 6.21007 8.05265 6.50523 7.84516 7.01853H7.79179V6.00044H6V12.0047H7.90616V8.8112C7.8786 8.48413 7.98327 8.06142 8.19741 7.80987C8.41156 7.55832 8.71789 7.49825 8.95015 7.46774H9.02258C9.62874 7.46774 10.0786 7.84301 10.0786 8.78868V12.0047H11.9847L12 8.35713Z" fill="currentColor" fill-rule="evenodd" clip-rule="evenodd"></path></symbol>
<symbol className="w-4 h-4" aria-hidden="true" fill="currentColor" viewBox="0 0 20 17" id="twitter">
    <path fillRule="evenodd" d="M20 1.892a8.178 8.178 0 0 1-2.355.635 4.074 4.074 0 0 0 1.8-2.235 8.344 8.344 0 0 1-2.605.98A4.13 4.13 0 0 0 13.85 0a4.068 4.068 0 0 0-4.1 4.038 4 4 0 0 0 .105.919A11.705 11.705 0 0 1 1.4.734a4.006 4.006 0 0 0 1.268 5.392 4.165 4.165 0 0 1-1.859-.5v.05A4.057 4.057 0 0 0 4.1 9.635a4.19 4.19 0 0 1-1.856.07 4.108 4.108 0 0 0 3.831 2.807A8.36 8.36 0 0 1 0 14.184 11.732 11.732 0 0 0 6.291 16 11.502 11.502 0 0 0 17.964 4.5c0-.177 0-.35-.012-.523A8.143 8.143 0 0 0 20 1.892Z" clipRule="evenodd"></path>
</symbol>
<symbol fill="none" viewBox="0 0 24 24" stroke-width="1.5" stroke="currentColor" class="w-6 h-6" id="x-mark">
  <path stroke-linecap="round" stroke-linejoin="round" d="M6 18L18 6M6 6l12 12" ></path>
</symbol>
</defs>
</svg>
